<svg xmlns="http://www.w3.org/2000/svg" xmlns:xlink="http://www.w3.org/1999/xlink" viewBox="0 0 500 500"><defs><style>.cls-1,.cls-2{fill:#fff;}.cls-2{stroke:#f0efef;stroke-width:2px;}.cls-2,.cls-3{stroke-miterlimit:10;}.cls-3{fill:none;stroke:#333;stroke-width:5px;}</style><symbol id="rectangle" data-name="rectangle" viewBox="0 0 500 500"><rect class="cls-1" width="500" height="500"/><rect class="cls-2" x="11.55" y="11.55" width="476.9" height="476.9"/></symbol></defs><title>0.1.2_squares</title><g id="squares_1_02"><use width="500" height="500" xlink:href="#rectangle"/><rect class="cls-3" x="70.62" y="116.54" width="85.59" height="84.78"/><rect class="cls-3" x="175.09" y="99.04" width="85.59" height="84.78"/><rect class="cls-3" x="282.56" y="185.69" width="85.59" height="84.78"/><rect class="cls-3" x="381.46" y="167.12" width="51.1" height="50.62"/><rect class="cls-3" x="70.62" y="81.55" width="171.19" height="84.78"/><rect class="cls-3" x="261.38" y="64.05" width="171.19" height="84.78"/><rect class="cls-3" x="7.83" y="246.42" width="171.19" height="45.99" transform="translate(362.84 175.99) rotate(90)"/><rect class="cls-3" x="71.66" y="332.02" width="171.19" height="45.99" transform="translate(512.27 197.75) rotate(90)"/><rect class="cls-3" x="133.49" y="109.15" width="171.19" height="45.99" transform="translate(351.23 -86.94) rotate(90)"/><rect class="cls-3" x="198.32" y="178.07" width="171.19" height="45.99" transform="translate(484.97 -82.85) rotate(90)"/><rect class="cls-3" x="260.15" y="248.98" width="171.19" height="45.99" transform="translate(617.72 -73.77) rotate(90)"/><rect class="cls-3" x="323.98" y="315.89" width="171.19" height="45.99" transform="translate(748.46 -70.69) rotate(90)"/></g></svg>