<svg id="squares_1_01" xmlns="http://www.w3.org/2000/svg" xmlns:xlink="http://www.w3.org/1999/xlink" viewBox="0 0 500 500"><defs><style>.cls-1,.cls-2{fill:#fff;}.cls-2{stroke:#f0efef;stroke-width:2px;}.cls-2,.cls-3{stroke-miterlimit:10;}.cls-3{fill:none;stroke:#333;stroke-width:5px;}</style><symbol id="rectangle" data-name="rectangle" viewBox="0 0 500 500"><rect class="cls-1" width="500" height="500"/><rect class="cls-2" x="11.55" y="11.55" width="476.9" height="476.9"/></symbol></defs><title>0.1.1_squares</title><use width="500" height="500" xlink:href="#rectangle"/><rect class="cls-3" x="70.62" y="61.69" width="85.59" height="84.78"/><rect class="cls-3" x="175.09" y="61.69" width="85.59" height="84.78"/><rect class="cls-3" x="279.56" y="61.69" width="85.59" height="84.78"/><rect class="cls-3" x="384.02" y="95.85" width="51.1" height="50.62"/><rect class="cls-3" x="70.62" y="164.41" width="171.19" height="84.78"/><rect class="cls-3" x="261.38" y="164.41" width="171.19" height="84.78"/><rect class="cls-3" x="4.83" y="329.72" width="171.19" height="45.99" transform="translate(443.14 262.29) rotate(90)"/><rect class="cls-3" x="68.66" y="329.72" width="171.19" height="45.99" transform="translate(506.97 198.46) rotate(90)"/><rect class="cls-3" x="132.49" y="329.72" width="171.19" height="45.99" transform="translate(570.8 134.63) rotate(90)"/><rect class="cls-3" x="196.32" y="329.72" width="171.19" height="45.99" transform="translate(634.63 70.8) rotate(90)"/><rect class="cls-3" x="260.15" y="329.72" width="171.19" height="45.99" transform="translate(698.46 6.97) rotate(90)"/><rect class="cls-3" x="323.98" y="329.72" width="171.19" height="45.99" transform="translate(762.29 -56.86) rotate(90)"/></svg>