<svg xmlns="http://www.w3.org/2000/svg" xmlns:xlink="http://www.w3.org/1999/xlink" viewBox="0 0 500 500"><defs><style>.cls-1,.cls-2{fill:#fff;}.cls-2{stroke:#f0efef;stroke-width:2px;}.cls-2,.cls-3{stroke-miterlimit:10;}.cls-3{fill:none;stroke:#333;stroke-width:5px;}</style><symbol id="rectangle" data-name="rectangle" viewBox="0 0 500 500"><rect class="cls-1" width="500" height="500"/><rect class="cls-2" x="11.55" y="11.55" width="476.9" height="476.9"/></symbol></defs><title>0.10.1_circles</title><g id="spheres_1_04"><use width="500" height="500" xlink:href="#rectangle"/><circle class="cls-3" cx="308.32" cy="275.04" r="74.46"/><circle class="cls-3" cx="358.74" cy="108.69" r="42.54"/><circle class="cls-3" cx="113.21" cy="355.65" r="10.24"/><circle class="cls-3" cx="376.34" cy="200.58" r="10.24"/><circle class="cls-3" cx="59.4" cy="250" r="10.24"/><circle class="cls-3" cx="185.67" cy="224.3" r="16.67"/><circle class="cls-3" cx="166" cy="298.56" r="42.54"/><circle class="cls-3" cx="211.55" cy="122.28" r="42.54"/><circle class="cls-3" cx="297.37" cy="162.46" r="16.67"/><circle class="cls-3" cx="59.4" cy="306.08" r="16.67"/><circle class="cls-3" cx="123.45" cy="192.7" r="42.54"/><circle class="cls-3" cx="417.39" cy="341.11" r="16.67"/><line class="cls-3" x1="59.4" y1="458.55" x2="59.4" y2="306.08"/><line class="cls-3" x1="113.21" y1="458.55" x2="113.21" y2="355.65"/><line class="cls-3" x1="166" y1="458.55" x2="166" y2="298.56"/><line class="cls-3" x1="308.32" y1="458.55" x2="308.32" y2="275.04"/><line class="cls-3" x1="166" y1="298.56" x2="123.45" y2="192.7"/><line class="cls-3" x1="308.32" y1="275.04" x2="376.34" y2="200.58"/><line class="cls-3" x1="166" y1="298.56" x2="185.75" y2="223.98"/><line class="cls-3" x1="307.22" y1="275.04" x2="211.55" y2="122.28"/><line class="cls-3" x1="59.4" y1="306.08" x2="59.4" y2="250"/><line class="cls-3" x1="417.39" y1="458.55" x2="417.39" y2="341.11"/><line class="cls-3" x1="308.32" y1="275.04" x2="297.17" y2="160.45"/><line class="cls-3" x1="308.32" y1="275.04" x2="358.74" y2="108.69"/></g></svg>