<svg xmlns="http://www.w3.org/2000/svg" xmlns:xlink="http://www.w3.org/1999/xlink" viewBox="0 0 500 500"><defs><style>.cls-1,.cls-2{fill:#fff;}.cls-2{stroke:#f0efef;stroke-width:2px;}.cls-2,.cls-3{stroke-miterlimit:10;}.cls-3{fill:none;stroke:#333;stroke-width:5px;}</style><symbol id="rectangle" data-name="rectangle" viewBox="0 0 500 500"><rect class="cls-1" width="500" height="500"/><rect class="cls-2" x="11.55" y="11.55" width="476.9" height="476.9"/></symbol></defs><title>0.11.1_circles</title><g id="spheres_1_05"><use width="500" height="500" xlink:href="#rectangle"/><circle class="cls-3" cx="359.31" cy="216.59" r="74.46"/><circle class="cls-3" cx="226.24" cy="118.05" r="10.24"/><circle class="cls-3" cx="133.66" cy="271.64" r="10.24"/><circle class="cls-3" cx="103.66" cy="289.31" r="16.67"/><circle class="cls-3" cx="227.63" cy="250.78" r="22.45"/><circle class="cls-3" cx="117.41" cy="282.5" r="48.36"/><circle class="cls-3" cx="347.95" cy="201" r="42.54"/><circle class="cls-3" cx="203.3" cy="159.6" r="16.67"/><circle class="cls-3" cx="203.3" cy="127.29" r="74.88"/><circle class="cls-3" cx="177.16" cy="117.05" r="16.67"/><circle class="cls-3" cx="261.24" cy="364.04" r="10.24"/><circle class="cls-3" cx="332.41" cy="262.55" r="10.24"/><circle class="cls-3" cx="371.55" cy="268.79" r="10.24"/><circle class="cls-3" cx="402.74" cy="246.83" r="10.24"/><circle class="cls-3" cx="414.37" cy="209.34" r="10.24"/><circle class="cls-3" cx="244.3" cy="406.58" r="16.67"/><circle class="cls-3" cx="244.3" cy="374.28" r="74.88"/><circle class="cls-3" cx="218.16" cy="364.04" r="16.67"/><line class="cls-3" x1="220.24" y1="229.58" x2="212.72" y2="201.58"/><line class="cls-3" x1="205.18" y1="256.56" x2="164.55" y2="271.64"/><line class="cls-3" x1="232.74" y1="272.64" x2="239.47" y2="299.56"/><line class="cls-3" x1="251" y1="244.83" x2="287.22" y2="234.14"/><line class="cls-3" x1="210" y1="144.34" x2="220.24" y2="127.29"/><line class="cls-3" x1="194.18" y1="145.65" x2="183.54" y2="132.45"/><line class="cls-3" x1="234.83" y1="364.04" x2="251" y2="364.04"/><line class="cls-3" x1="261.24" y1="374.28" x2="251" y2="391.32"/><line class="cls-3" x1="224.54" y1="379.44" x2="232.74" y2="391.32"/><line class="cls-3" x1="117.41" y1="282.5" x2="125.37" y2="277.63"/><line class="cls-3" x1="341.71" y1="266.81" x2="361.31" y2="268.79"/><line class="cls-3" x1="381.79" y1="266.81" x2="395.89" y2="255.08"/><line class="cls-3" x1="406.54" y1="237.33" x2="411.97" y2="219.58"/><line class="cls-3" x1="381.79" y1="226.79" x2="395.89" y2="239.23"/></g></svg>