<svg xmlns="http://www.w3.org/2000/svg" xmlns:xlink="http://www.w3.org/1999/xlink" viewBox="0 0 500 500"><defs><style>.cls-1,.cls-2{fill:#fff;}.cls-2{stroke:#f0efef;stroke-width:2px;}.cls-2,.cls-3{stroke-miterlimit:10;}.cls-3{fill:none;stroke:#333;stroke-width:5px;}</style><symbol id="rectangle" data-name="rectangle" viewBox="0 0 500 500"><rect class="cls-1" width="500" height="500"/><rect class="cls-2" x="11.55" y="11.55" width="476.9" height="476.9"/></symbol></defs><title>0.12.4_circles</title><g id="spheres_1_09"><use width="500" height="500" xlink:href="#rectangle"/><circle class="cls-3" cx="282.69" cy="202.11" r="16.87"/><circle class="cls-3" cx="186.98" cy="233.13" r="3.41"/><circle class="cls-3" cx="184.42" cy="249.32" r="5.55"/><circle class="cls-3" cx="187.09" cy="268.52" r="7.47"/><circle class="cls-3" cx="201.63" cy="293.15" r="12.21"/><circle class="cls-3" cx="236.83" cy="192.59" r="6.6"/><circle class="cls-3" cx="203.6" cy="208.66" r="19.37"/><circle class="cls-3" cx="255.62" cy="191.69" r="5.55"/><circle class="cls-3" cx="258.9" cy="311.65" r="7.64"/><circle class="cls-3" cx="282.69" cy="301.8" r="8.34"/><circle class="cls-3" cx="305.81" cy="238.8" r="3.41"/><circle class="cls-3" cx="302.4" cy="225.31" r="3.41"/><circle class="cls-3" cx="222.53" cy="308.5" r="5.55"/><circle class="cls-3" cx="306.34" cy="271.22" r="19.14"/><circle class="cls-3" cx="239.22" cy="312.74" r="5.55"/><circle class="cls-3" cx="358.2" cy="190.65" r="38.9"/><circle class="cls-3" cx="369.03" cy="294.11" r="5.16"/><circle class="cls-3" cx="149.96" cy="166.86" r="7.04"/><circle class="cls-3" cx="133.4" cy="190.65" r="11.46"/><circle class="cls-3" cx="120.03" cy="228.39" r="17.74"/><circle class="cls-3" cx="123.23" cy="287.38" r="28.58"/><circle class="cls-3" cx="259.33" cy="124.83" r="13.63"/><circle class="cls-3" cx="200.28" cy="134.28" r="34.17"/><circle class="cls-3" cx="295.02" cy="132.26" r="11.46"/><circle class="cls-3" cx="210.59" cy="375.8" r="17.31"/><circle class="cls-3" cx="263.56" cy="380.38" r="21.31"/><circle class="cls-3" cx="374.67" cy="270.24" r="7.05"/><circle class="cls-3" cx="374.68" cy="244.25" r="7.04"/><circle class="cls-3" cx="319.3" cy="147.51" r="7.04"/><circle class="cls-3" cx="146.92" cy="335.39" r="11.46"/><circle class="cls-3" cx="336.04" cy="346.85" r="40.38"/><circle class="cls-3" cx="173.47" cy="359.07" r="11.46"/><line class="cls-3" x1="200.28" y1="190.65" x2="198.63" y2="168.41"/><line class="cls-3" x1="187.09" y1="199.19" x2="154.14" y2="172.52"/><line class="cls-3" x1="183.57" y1="208.66" x2="142.93" y2="197.02"/><line class="cls-3" x1="186" y1="216.74" x2="137.75" y2="229.25"/><line class="cls-3" x1="238.91" y1="185.24" x2="253.55" y2="138.46"/><line class="cls-3" x1="255.8" y1="186.59" x2="259.33" y2="138.46"/><line class="cls-3" x1="291.02" y1="187.45" x2="316.47" y2="153.95"/><line class="cls-3" x1="291.02" y1="142.99" x2="284.88" y2="185.24"/><line class="cls-3" x1="299.56" y1="199.19" x2="319.3" y2="195.69"/><line class="cls-3" x1="305.51" y1="223.91" x2="324.83" y2="210.65"/><line class="cls-3" x1="309.22" y1="237.45" x2="330.41" y2="217.87"/><line class="cls-3" x1="369.03" y1="246.14" x2="309.21" y2="238.57"/><line class="cls-3" x1="368.22" y1="267.41" x2="325.49" y2="271.22"/><line class="cls-3" x1="363.87" y1="294.11" x2="324.88" y2="276"/><line class="cls-3" x1="289.58" y1="306.47" x2="305.81" y2="320.08"/><line class="cls-3" x1="259.41" y1="319.27" x2="266.54" y2="359.28"/><line class="cls-3" x1="240.95" y1="319.29" x2="258.9" y2="359.59"/><line class="cls-3" x1="283.24" y1="310.12" x2="272.12" y2="360.86"/><line class="cls-3" x1="314.33" y1="288.61" x2="323.37" y2="308.5"/><line class="cls-3" x1="220.75" y1="315.03" x2="213.61" y2="359.07"/><line class="cls-3" x1="179.62" y1="349.4" x2="218.96" y2="312.74"/><line class="cls-3" x1="183.58" y1="233.13" x2="137.75" y2="229.25"/><line class="cls-3" x1="179.37" y1="251.64" x2="144.7" y2="268.52"/><line class="cls-3" x1="180.3" y1="271.64" x2="151.81" y2="278.09"/><line class="cls-3" x1="154.9" y1="327.18" x2="190.39" y2="300.3"/><line class="cls-3" x1="151.78" y1="288.76" x2="189.42" y2="293.15"/><circle class="cls-3" cx="249.06" cy="249.35" r="192.48"/><circle class="cls-3" cx="171.82" cy="72.93" r="9.45"/><circle class="cls-3" cx="262.61" cy="57.77" r="9.45"/><circle class="cls-3" cx="321.32" cy="71.03" r="9.45"/><circle class="cls-3" cx="358.2" cy="91.47" r="9.45"/><circle class="cls-3" cx="417.64" cy="156.51" r="9.45"/><circle class="cls-3" cx="441.54" cy="242.8" r="9.45"/><circle class="cls-3" cx="438.73" cy="283.87" r="9.45"/><circle class="cls-3" cx="428.28" cy="318.65" r="9.45"/><circle class="cls-3" cx="376.42" cy="393.11" r="9.45"/><circle class="cls-3" cx="273.56" cy="439.83" r="9.45"/><circle class="cls-3" cx="190.39" cy="432.38" r="9.45"/><circle class="cls-3" cx="137.77" cy="406" r="9.45"/><circle class="cls-3" cx="100.98" cy="372.23" r="9.45"/><circle class="cls-3" cx="63.06" cy="301.03" r="9.45"/><circle class="cls-3" cx="59.24" cy="220.77" r="9.45"/><circle class="cls-3" cx="77.22" cy="161.97" r="9.45"/><circle class="cls-3" cx="102.89" cy="124.44" r="9.45"/></g></svg>