<svg xmlns="http://www.w3.org/2000/svg" xmlns:xlink="http://www.w3.org/1999/xlink" viewBox="0 0 500 500"><defs><style>.cls-1,.cls-2{fill:#fff;}.cls-2{stroke:#f0efef;stroke-width:2px;}.cls-2,.cls-3{stroke-miterlimit:10;}.cls-3{fill:none;stroke:#333;stroke-width:5px;}</style><symbol id="rectangle" data-name="rectangle" viewBox="0 0 500 500"><rect class="cls-1" width="500" height="500"/><rect class="cls-2" x="11.55" y="11.55" width="476.9" height="476.9"/></symbol></defs><title>0.12.1_circles</title><g id="spheres_1_06"><use width="500" height="500" xlink:href="#rectangle"/><circle class="cls-3" cx="385.23" cy="174.2" r="47.58"/><circle class="cls-3" cx="398.47" cy="300.73" r="8.92"/><circle class="cls-3" cx="130.56" cy="145.1" r="8.61"/><circle class="cls-3" cx="110.3" cy="174.2" r="14.01"/><circle class="cls-3" cx="93.95" cy="220.36" r="18.88"/><circle class="cls-3" cx="97.87" cy="292.49" r="34.95"/><circle class="cls-3" cx="248.16" cy="250.96" r="14.37"/><circle class="cls-3" cx="268.49" cy="93.7" r="16.67"/><circle class="cls-3" cx="192.1" cy="105.25" r="48.93"/><circle class="cls-3" cx="308.74" cy="105.24" r="14.01"/><circle class="cls-3" cx="204.71" cy="400.63" r="21.17"/><circle class="cls-3" cx="269.49" cy="406.23" r="29.79"/><circle class="cls-3" cx="405.37" cy="271.53" r="8.61"/><circle class="cls-3" cx="405.38" cy="239.75" r="8.61"/><circle class="cls-3" cx="337.65" cy="121.43" r="8.61"/><circle class="cls-3" cx="126.84" cy="351.21" r="14.01"/><circle class="cls-3" cx="358.12" cy="365.22" r="52.86"/><circle class="cls-3" cx="159.31" cy="380.17" r="14.01"/></g></svg>