<svg xmlns="http://www.w3.org/2000/svg" xmlns:xlink="http://www.w3.org/1999/xlink" viewBox="0 0 500 500"><defs><style>.cls-1,.cls-2{fill:#fff;}.cls-2{stroke:#f0efef;stroke-width:2px;}.cls-2,.cls-3{stroke-miterlimit:10;}.cls-3{fill:none;stroke:#333;stroke-width:5px;}</style><symbol id="rectangle" data-name="rectangle" viewBox="0 0 500 500"><rect class="cls-1" width="500" height="500"/><rect class="cls-2" x="11.55" y="11.55" width="476.9" height="476.9"/></symbol></defs><title>0.12.2_circles</title><g id="spheres_1_07"><use width="500" height="500" xlink:href="#rectangle"/><circle class="cls-3" cx="297.45" cy="183.59" r="22.27"/><circle class="cls-3" cx="171.07" cy="224.54" r="4.5"/><circle class="cls-3" cx="167.68" cy="245.93" r="7.33"/><circle class="cls-3" cx="171.21" cy="271.28" r="9.87"/><circle class="cls-3" cx="190.42" cy="303.81" r="16.13"/><circle class="cls-3" cx="236.9" cy="171.01" r="8.71"/><circle class="cls-3" cx="252.76" cy="250.44" r="8.71"/><circle class="cls-3" cx="193.02" cy="192.23" r="25.58"/><circle class="cls-3" cx="261.71" cy="169.82" r="7.33"/><circle class="cls-3" cx="266.04" cy="328.24" r="10.09"/><circle class="cls-3" cx="297.45" cy="315.23" r="11.01"/><circle class="cls-3" cx="327.99" cy="232.03" r="4.5"/><circle class="cls-3" cx="323.49" cy="214.22" r="4.5"/><circle class="cls-3" cx="218.01" cy="324.07" r="7.33"/><circle class="cls-3" cx="328.69" cy="274.84" r="25.28"/><circle class="cls-3" cx="240.05" cy="329.68" r="7.33"/><circle class="cls-3" cx="397.18" cy="168.46" r="51.37"/><circle class="cls-3" cx="411.47" cy="305.08" r="6.81"/><circle class="cls-3" cx="122.18" cy="137.03" r="9.29"/><circle class="cls-3" cx="100.31" cy="168.46" r="15.13"/><circle class="cls-3" cx="82.65" cy="218.29" r="23.43"/><circle class="cls-3" cx="86.89" cy="296.19" r="37.74"/><circle class="cls-3" cx="266.6" cy="81.53" r="18"/><circle class="cls-3" cx="188.63" cy="94.01" r="45.13"/><circle class="cls-3" cx="313.74" cy="91.34" r="15.13"/><circle class="cls-3" cx="202.24" cy="412.95" r="22.86"/><circle class="cls-3" cx="272.2" cy="419.01" r="28.14"/><circle class="cls-3" cx="418.93" cy="273.56" r="9.31"/><circle class="cls-3" cx="418.94" cy="239.23" r="9.29"/><circle class="cls-3" cx="345.8" cy="111.48" r="9.29"/><circle class="cls-3" cx="118.16" cy="359.6" r="15.13"/><circle class="cls-3" cx="367.91" cy="374.73" r="53.33"/><circle class="cls-3" cx="153.23" cy="390.86" r="15.13"/></g></svg>