<svg xmlns="http://www.w3.org/2000/svg" xmlns:xlink="http://www.w3.org/1999/xlink" viewBox="0 0 500 500"><defs><style>.cls-1,.cls-2{fill:#fff;}.cls-2{stroke:#f0efef;stroke-width:2px;}.cls-2,.cls-3{stroke-miterlimit:10;}.cls-3{fill:none;stroke:#333;stroke-width:5px;}</style><symbol id="rectangle" data-name="rectangle" viewBox="0 0 500 500"><rect class="cls-1" width="500" height="500"/><rect class="cls-2" x="11.55" y="11.55" width="476.9" height="476.9"/></symbol></defs><title>0.12.3_circles</title><g id="spheres_1_08"><use width="500" height="500" xlink:href="#rectangle"/><circle class="cls-3" cx="307.8" cy="183.59" r="22.27"/><circle class="cls-3" cx="181.42" cy="224.54" r="4.5"/><circle class="cls-3" cx="178.03" cy="245.93" r="7.33"/><circle class="cls-3" cx="181.57" cy="271.28" r="9.87"/><circle class="cls-3" cx="200.77" cy="303.81" r="16.13"/><circle class="cls-3" cx="247.25" cy="171.01" r="8.71"/><circle class="cls-3" cx="203.37" cy="192.23" r="25.58"/><circle class="cls-3" cx="272.06" cy="169.82" r="7.33"/><circle class="cls-3" cx="276.4" cy="328.24" r="10.09"/><circle class="cls-3" cx="307.8" cy="315.23" r="11.01"/><circle class="cls-3" cx="338.34" cy="232.03" r="4.5"/><circle class="cls-3" cx="333.85" cy="214.22" r="4.5"/><circle class="cls-3" cx="228.36" cy="324.07" r="7.33"/><circle class="cls-3" cx="339.05" cy="274.84" r="25.28"/><circle class="cls-3" cx="250.41" cy="329.68" r="7.33"/><circle class="cls-3" cx="407.53" cy="168.46" r="51.37"/><circle class="cls-3" cx="421.82" cy="305.08" r="6.81"/><circle class="cls-3" cx="132.54" cy="137.03" r="9.29"/><circle class="cls-3" cx="110.66" cy="168.46" r="15.13"/><circle class="cls-3" cx="93" cy="218.29" r="23.43"/><circle class="cls-3" cx="97.24" cy="296.19" r="37.74"/><circle class="cls-3" cx="276.96" cy="81.53" r="18"/><circle class="cls-3" cx="198.99" cy="94.01" r="45.13"/><circle class="cls-3" cx="324.09" cy="91.34" r="15.13"/><circle class="cls-3" cx="212.6" cy="412.95" r="22.86"/><circle class="cls-3" cx="282.55" cy="419.01" r="28.14"/><circle class="cls-3" cx="429.28" cy="273.56" r="9.31"/><circle class="cls-3" cx="429.29" cy="239.23" r="9.29"/><circle class="cls-3" cx="356.16" cy="111.48" r="9.29"/><circle class="cls-3" cx="128.51" cy="359.6" r="15.13"/><circle class="cls-3" cx="378.26" cy="374.73" r="53.33"/><circle class="cls-3" cx="163.58" cy="390.86" r="15.13"/><line class="cls-3" x1="198.99" y1="168.46" x2="196.8" y2="139.09"/><line class="cls-3" x1="181.57" y1="179.73" x2="138.05" y2="144.5"/><line class="cls-3" x1="176.92" y1="192.23" x2="123.24" y2="176.86"/><line class="cls-3" x1="180.12" y1="202.91" x2="116.41" y2="219.43"/><line class="cls-3" x1="250" y1="161.31" x2="269.33" y2="99.52"/><line class="cls-3" x1="272.31" y1="163.08" x2="276.96" y2="99.52"/><line class="cls-3" x1="318.81" y1="164.23" x2="352.43" y2="119.99"/><line class="cls-3" x1="318.81" y1="105.52" x2="310.7" y2="161.31"/><line class="cls-3" x1="330.08" y1="179.73" x2="356.16" y2="175.11"/><line class="cls-3" x1="337.8" y1="212.09" x2="363.46" y2="194.86"/><line class="cls-3" x1="342.84" y1="229.41" x2="370.83" y2="204.39"/><line class="cls-3" x1="421.82" y1="241.73" x2="342.83" y2="231.74"/><line class="cls-3" x1="420.76" y1="269.82" x2="364.32" y2="274.84"/><line class="cls-3" x1="415.01" y1="305.08" x2="363.52" y2="281.16"/><line class="cls-3" x1="316.91" y1="321.39" x2="338.34" y2="339.37"/><line class="cls-3" x1="277.06" y1="338.31" x2="286.49" y2="391.14"/><line class="cls-3" x1="252.59" y1="336.67" x2="276.4" y2="391.55"/><line class="cls-3" x1="308.53" y1="326.21" x2="293.85" y2="393.23"/><line class="cls-3" x1="349.6" y1="297.81" x2="361.53" y2="324.07"/><line class="cls-3" x1="316.1" y1="264.25" x2="225.01" y2="205.86"/><line class="cls-3" x1="226.01" y1="332.7" x2="216.58" y2="390.86"/><line class="cls-3" x1="171.69" y1="378.1" x2="223.65" y2="329.68"/><line class="cls-3" x1="176.92" y1="224.54" x2="116.41" y2="219.43"/><line class="cls-3" x1="171.38" y1="248.99" x2="125.58" y2="271.28"/><line class="cls-3" x1="172.6" y1="275.4" x2="134.98" y2="283.92"/><line class="cls-3" x1="139.05" y1="348.75" x2="185.92" y2="313.25"/><line class="cls-3" x1="134.93" y1="298.02" x2="184.64" y2="303.81"/><line class="cls-3" x1="214.43" y1="299.08" x2="300.19" y2="308.43"/><line class="cls-3" x1="316.1" y1="264.25" x2="225.01" y2="205.86"/><line class="cls-3" x1="214.43" y1="299.08" x2="300.19" y2="308.43"/></g></svg>