<svg xmlns="http://www.w3.org/2000/svg" xmlns:xlink="http://www.w3.org/1999/xlink" viewBox="0 0 500 500"><defs><style>.cls-1,.cls-2{fill:#fff;}.cls-2{stroke:#f0efef;stroke-width:2px;}.cls-2,.cls-3{stroke-miterlimit:10;}.cls-3{fill:none;stroke:#333;stroke-width:5px;}</style><symbol id="rectangle" data-name="rectangle" viewBox="0 0 500 500"><rect class="cls-1" width="500" height="500"/><rect class="cls-2" x="11.55" y="11.55" width="476.9" height="476.9"/></symbol></defs><title>0.5.2_squares</title><g id="squares_1_08"><use width="500" height="500" xlink:href="#rectangle"/><rect class="cls-3" x="60.64" y="254.6" width="80.7" height="79.94"/><rect class="cls-3" x="259.2" y="254.6" width="80.7" height="79.94"/><rect class="cls-3" x="177.7" y="344.08" width="45.15" height="44.72"/><rect class="cls-3" x="377.42" y="345.85" width="45.15" height="44.72"/><rect class="cls-3" x="276.98" y="345.85" width="45.15" height="44.72"/><rect class="cls-3" x="276.98" y="401.87" width="45.15" height="44.72"/><rect class="cls-3" x="387.69" y="438.11" width="25.3" height="25.06"/><rect class="cls-3" x="387.69" y="401.33" width="25.3" height="25.06"/><rect class="cls-3" x="89.34" y="344.08" width="25.3" height="25.06"/><rect class="cls-3" x="61.12" y="46.25" width="180.01" height="178.29"/><rect class="cls-3" x="358.48" y="254.6" width="80.7" height="79.94"/><rect class="cls-3" x="159.92" y="254.5" width="80.7" height="79.94"/><polyline class="cls-3" points="240.63 169.32 299.56 169.32 299.56 254.6"/><polyline class="cls-3" points="241.13 102.12 400.34 102.12 400.34 254.6"/><line class="cls-3" x1="102" y1="224.55" x2="102" y2="254.6"/><line class="cls-3" x1="200.28" y1="224.55" x2="200.28" y2="254.5"/><line class="cls-3" x1="102" y1="334.54" x2="102" y2="344.08"/><line class="cls-3" x1="200.28" y1="334.54" x2="200.28" y2="345.85"/><line class="cls-3" x1="299.56" y1="334.44" x2="299.56" y2="345.85"/><line class="cls-3" x1="400.34" y1="334.49" x2="400.34" y2="345.9"/><line class="cls-3" x1="299.56" y1="390.56" x2="299.56" y2="401.97"/><line class="cls-3" x1="400.34" y1="390.56" x2="400.34" y2="401.97"/><line class="cls-3" x1="400.34" y1="426.55" x2="400.34" y2="437.96"/></g></svg>