<svg xmlns="http://www.w3.org/2000/svg" xmlns:xlink="http://www.w3.org/1999/xlink" viewBox="0 0 500 500"><defs><style>.cls-1,.cls-2{fill:#fff;}.cls-2{stroke:#f0efef;stroke-width:2px;}.cls-2,.cls-3{stroke-miterlimit:10;}.cls-3{fill:none;stroke:#333;stroke-width:5px;}</style><symbol id="rectangle" data-name="rectangle" viewBox="0 0 500 500"><rect class="cls-1" width="500" height="500"/><rect class="cls-2" x="11.55" y="11.55" width="476.9" height="476.9"/></symbol></defs><title>0.6.1_squares</title><g id="squares_1_09"><use width="500" height="500" xlink:href="#rectangle"/><rect class="cls-3" x="54.42" y="55.2" width="391.15" height="184.7"/><rect class="cls-3" x="54.42" y="253.06" width="391.15" height="192.91"/><rect class="cls-3" x="67.34" y="265.94" width="180.87" height="166.5"/><rect class="cls-3" x="79.48" y="167.37" width="18.27" height="18.09"/><rect class="cls-3" x="79.48" y="197.39" width="18.27" height="18.09"/><rect class="cls-3" x="79.48" y="80.45" width="18.27" height="18.09"/><rect class="cls-3" x="79.48" y="110.47" width="18.27" height="18.09"/><rect class="cls-3" x="109.12" y="167.37" width="18.27" height="18.09"/><rect class="cls-3" x="109.12" y="197.39" width="18.27" height="18.09"/><rect class="cls-3" x="41.36" y="41.36" width="417.29" height="417.29"/><rect class="cls-3" x="68.34" y="154.96" width="72.41" height="71.72"/><rect class="cls-3" x="68.34" y="69.86" width="72.41" height="71.72"/><rect class="cls-3" x="166.1" y="167.37" width="18.27" height="18.09"/><rect class="cls-3" x="166.1" y="197.39" width="18.27" height="18.09"/><rect class="cls-3" x="166.1" y="110.47" width="18.27" height="18.09"/><rect class="cls-3" x="195.75" y="197.39" width="18.27" height="18.09"/><rect class="cls-3" x="271.78" y="277" width="21.02" height="20.82"/><rect class="cls-3" x="271.78" y="311.54" width="21.02" height="20.82"/><rect class="cls-3" x="305.89" y="311.54" width="21.02" height="20.82"/><rect class="cls-3" x="154.97" y="154.96" width="72.41" height="71.72"/><rect class="cls-3" x="154.97" y="69.86" width="72.41" height="71.72"/><rect class="cls-3" x="260.76" y="356" width="77.17" height="76.44"/><rect class="cls-3" x="260.76" y="266.46" width="77.17" height="76.44"/></g></svg>