<svg xmlns="http://www.w3.org/2000/svg" xmlns:xlink="http://www.w3.org/1999/xlink" viewBox="0 0 500 500"><defs><style>.cls-1,.cls-2{fill:#fff;}.cls-2{stroke:#f0efef;stroke-width:2px;}.cls-2,.cls-3{stroke-miterlimit:10;}.cls-3{fill:none;stroke:#333;stroke-width:5px;}</style><symbol id="rectangle" data-name="rectangle" viewBox="0 0 500 500"><rect class="cls-1" width="500" height="500"/><rect class="cls-2" x="11.55" y="11.55" width="476.9" height="476.9"/></symbol></defs><title>0.7.1_squares</title><g id="squares_1_10"><use width="500" height="500" xlink:href="#rectangle"/><rect class="cls-3" x="81.71" y="69.17" width="342.38" height="162.32"/><rect class="cls-3" x="81.71" y="261.8" width="342.38" height="165.95"/><rect class="cls-3" x="117.75" y="295.96" width="99.62" height="99.62"/><rect class="cls-3" x="283.49" y="291.41" width="99.62" height="99.62"/><rect class="cls-3" x="286.83" y="132.67" width="35.31" height="35.31"/><rect class="cls-3" x="58.97" y="45.06" width="195.1" height="408.2"/><rect class="cls-3" x="152.36" y="328.69" width="12.65" height="12.53"/><rect class="cls-3" x="171.04" y="328.69" width="12.65" height="12.53"/><rect class="cls-3" x="152.36" y="346.79" width="12.65" height="12.53"/><rect class="cls-3" x="171.04" y="346.79" width="12.65" height="12.53"/><rect class="cls-3" x="341.25" y="132.67" width="9.44" height="9.35"/><rect class="cls-3" x="341.25" y="158.64" width="9.44" height="9.35"/><rect class="cls-3" x="117.75" y="100.52" width="268.86" height="99.62"/></g></svg>