<svg xmlns="http://www.w3.org/2000/svg" xmlns:xlink="http://www.w3.org/1999/xlink" viewBox="0 0 500 500"><defs><style>.cls-1,.cls-2{fill:#fff;}.cls-2{stroke:#f0efef;stroke-width:2px;}.cls-2,.cls-3{stroke-miterlimit:10;}.cls-3{fill:none;stroke:#333;stroke-width:5px;}</style><symbol id="rectangle" data-name="rectangle" viewBox="0 0 500 500"><rect class="cls-1" width="500" height="500"/><rect class="cls-2" x="11.55" y="11.55" width="476.9" height="476.9"/></symbol></defs><title>0.9.2_circles</title><g id="spheres_1_03"><use width="500" height="500" xlink:href="#rectangle"/><circle class="cls-3" cx="260.91" cy="336.59" r="74.46"/><circle class="cls-3" cx="170.15" cy="108.62" r="42.54"/><circle class="cls-3" cx="99.41" cy="115.92" r="10.24"/><circle class="cls-3" cx="316.97" cy="108.69" r="10.24"/><circle class="cls-3" cx="327.21" cy="74.55" r="10.24"/><circle class="cls-3" cx="222.76" cy="158.98" r="16.67"/><circle class="cls-3" cx="133.22" cy="304.67" r="42.54"/><circle class="cls-3" cx="383.55" cy="108.69" r="42.54"/><circle class="cls-3" cx="422.64" cy="171.67" r="16.67"/><circle class="cls-3" cx="165.27" cy="374.83" r="16.67"/><circle class="cls-3" cx="99.41" cy="180.25" r="42.54"/><circle class="cls-3" cx="181.61" cy="192.31" r="16.67"/><line class="cls-3" x1="209.45" y1="148.95" x2="198.76" y2="140.11"/><line class="cls-3" x1="181.61" y1="175.65" x2="178.29" y2="151.23"/><line class="cls-3" x1="127.61" y1="148.41" x2="139.12" y2="137.71"/><line class="cls-3" x1="109.64" y1="115.92" x2="127.61" y2="115.92"/><line class="cls-3" x1="130.78" y1="208.98" x2="204.11" y2="287.75"/><line class="cls-3" x1="147.15" y1="344.87" x2="156.95" y2="360.39"/><line class="cls-3" x1="179.28" y1="365.8" x2="189.7" y2="361.82"/><line class="cls-3" x1="327.21" y1="108.69" x2="341.01" y2="108.69"/><line class="cls-3" x1="334.11" y1="82.1" x2="346.51" y2="87.76"/><line class="cls-3" x1="414.47" y1="157.14" x2="408.19" y2="145.01"/><line class="cls-3" x1="364.5" y1="146.72" x2="312.32" y2="281.6"/></g></svg>